<?xml version="1.0" encoding="UTF-8" standalone="no"?>
<svg xmlns="http://www.w3.org/2000/svg" xmlns:xlink="http://www.w3.org/1999/xlink" xmlns:serif="http://www.serif.com/" width="100%" height="100%" viewBox="0 0 174 38" version="1.1" xml:space="preserve" style="fill-rule:evenodd;clip-rule:evenodd;stroke-linejoin:round;stroke-miterlimit:2;">
    <g id="Artboard1">
        <rect x="0" y="0" width="173.268" height="37.51" style="fill:none;"></rect>
        <g>
            <path d="M1.136,35.571L2.563,35.571L2.563,6.562C2.563,5.515 2.372,4.85 2.039,4.612C2.42,4.707 2.848,4.992 3.228,5.848L16.163,35.571L17.447,35.571L29.717,5.135L29.717,35.571L35.899,35.571L35.899,2.282L29.574,2.282L19.159,28.104L7.841,2.282L1.136,2.282L1.136,35.571Z" style="fill:white;fill-rule:nonzero;"></path>
            <path d="M51.973,36.522C57.489,36.522 60.866,31.956 62.292,29.055L61.864,28.723C60.675,31.1 57.822,33.478 54.208,33.478C49.215,33.478 45.838,29.816 45.695,23.396L63.053,23.396C63.053,14.599 57.347,10.842 51.783,10.842C46.076,10.842 39.703,14.789 39.703,23.587C39.703,32.575 46.219,36.522 51.973,36.522ZM45.695,22.445C45.791,15.502 48.121,11.793 51.783,11.793C55.064,11.793 57.204,14.646 57.394,22.445L45.695,22.445Z" style="fill:white;fill-rule:nonzero;"></path>
            <path d="M66.905,18.783L66.905,35.571L72.612,35.571L72.612,23.016C72.612,15.169 76.607,11.793 78.984,11.793C80.791,11.793 81.315,13.552 81.315,17.499L81.315,35.571L87.021,35.571L87.021,17.785C87.021,12.887 85.167,10.842 80.221,10.842C77.13,10.842 74.419,12.221 72.612,14.789L72.612,11.793L64.48,11.793L64.48,12.221C66.097,12.221 66.905,14.218 66.905,18.783Z" style="fill:white;fill-rule:nonzero;"></path>
            <path d="M97.008,36.522C99.909,36.522 101.716,33.906 103.095,32.242L102.905,31.861C102.001,32.812 101.193,33.573 100.147,33.573C98.625,33.526 97.864,32.147 97.864,29.816L97.864,12.744L102.762,12.744L102.762,11.793L97.864,11.793L97.864,4.659L97.341,4.659C97.341,7.037 94.583,11.793 92.157,11.793L90.588,11.793L90.588,12.744L92.157,12.744L92.157,29.911C92.157,33.716 93.631,36.522 97.008,36.522Z" style="fill:white;fill-rule:nonzero;"></path>
            <path d="M106.709,18.783L106.709,35.571L112.416,35.571L112.416,11.793L104.284,11.793L104.284,12.221C105.901,12.221 106.709,14.218 106.709,18.783ZM106.424,3.899C106.424,5.373 107.613,6.562 109.087,6.562C110.561,6.562 111.75,5.373 111.75,3.899C111.75,2.424 110.561,1.235 109.087,1.235C107.613,1.235 106.424,2.424 106.424,3.899Z" style="fill:white;fill-rule:nonzero;"></path>
            <path d="M123.401,35.571L129.108,35.571L136.812,11.793L130.582,11.793C132.342,14.694 133.673,18.926 132.77,21.684L128.585,34.096L124.495,22.445C121.689,14.551 120.833,12.173 124.352,12.173L124.352,11.793L115.031,11.793L123.401,35.571Z" style="fill:white;fill-rule:nonzero;"></path>
            <path d="M140.474,18.783L140.474,35.571L146.18,35.571L146.18,11.793L138.048,11.793L138.048,12.221C139.665,12.221 140.474,14.218 140.474,18.783ZM140.188,3.899C140.188,5.373 141.377,6.562 142.852,6.562C144.326,6.562 145.515,5.373 145.515,3.899C145.515,2.424 144.326,1.235 142.852,1.235C141.377,1.235 140.188,2.424 140.188,3.899Z" style="fill:white;fill-rule:nonzero;"></path>
            <path d="M161.636,36.522C168.341,36.522 172.098,33.859 172.098,28.723C172.098,19.021 154.74,20.876 154.74,15.074C154.74,13.505 157.023,11.793 159.591,11.793C164.632,11.793 168.674,15.312 170.672,18.546L170.814,18.546L170.814,13.172C169.483,11.935 165.25,10.842 160.97,10.842C153.124,10.842 150.413,14.789 150.413,18.07C150.413,25.679 167.913,24.871 167.913,31.719C167.913,33.573 166.106,35.571 162.92,35.571C156.405,35.571 152.981,31.291 150.365,27.343L150.223,27.343L150.223,34.191C152.458,35.38 157.404,36.522 161.636,36.522Z" style="fill:white;fill-rule:nonzero;"></path>
        </g>
    </g>
</svg>
