<svg xmlns="http://www.w3.org/2000/svg" xmlns:xlink="http://www.w3.org/1999/xlink" xmlns:serif="http://www.serif.com/" width="100%" height="100%" viewBox="0 0 174 38" xml:space="preserve" style="fill-rule:evenodd;clip-rule:evenodd;stroke-linejoin:round;stroke-miterlimit:2;">  <g id="Artboard1">    <rect x="0" y="0" width="173.268" height="37.51" style="fill:none;"></rect>    <g>      <path d="M1.136,35.571L2.563,35.571L2.563,6.562C2.563,5.516 2.373,4.85 2.04,4.612C2.42,4.707 2.848,4.992 3.229,5.848L16.164,35.571L17.448,35.571L29.717,5.135L29.717,35.571L35.9,35.571L35.9,2.282L29.575,2.282L19.16,28.104L7.842,2.282L1.136,2.282L1.136,35.571Z" style="fill:white;fill-rule:nonzero;"></path>      <path d="M51.973,36.522C57.49,36.522 60.866,31.956 62.293,29.056L61.865,28.723C60.676,31.1 57.823,33.478 54.208,33.478C49.215,33.478 45.839,29.816 45.696,23.396L63.054,23.396C63.054,14.599 57.347,10.842 51.783,10.842C46.076,10.842 39.704,14.789 39.704,23.587C39.704,32.575 46.219,36.522 51.973,36.522ZM45.696,22.445C45.791,15.502 48.121,11.793 51.783,11.793C55.064,11.793 57.204,14.646 57.395,22.445L45.696,22.445Z" style="fill:white;fill-rule:nonzero;"></path>      <path d="M66.906,18.784L66.906,35.571L72.612,35.571L72.612,23.016C72.612,15.169 76.607,11.793 78.985,11.793C80.792,11.793 81.315,13.552 81.315,17.5L81.315,35.571L87.022,35.571L87.022,17.785C87.022,12.887 85.167,10.842 80.221,10.842C77.13,10.842 74.42,12.221 72.612,14.789L72.612,11.793L64.48,11.793L64.48,12.221C66.097,12.221 66.906,14.218 66.906,18.784Z" style="fill:white;fill-rule:nonzero;"></path>      <path d="M97.008,36.522C99.909,36.522 101.716,33.906 103.096,32.242L102.905,31.861C102.002,32.812 101.193,33.573 100.147,33.573C98.625,33.526 97.864,32.147 97.864,29.816L97.864,12.744L102.763,12.744L102.763,11.793L97.864,11.793L97.864,4.66L97.341,4.66C97.341,7.037 94.583,11.793 92.158,11.793L90.588,11.793L90.588,12.744L92.158,12.744L92.158,29.912C92.158,33.716 93.632,36.522 97.008,36.522Z" style="fill:white;fill-rule:nonzero;"></path>      <path d="M106.71,18.784L106.71,35.571L112.416,35.571L112.416,11.793L104.284,11.793L104.284,12.221C105.901,12.221 106.71,14.218 106.71,18.784ZM106.424,3.899C106.424,5.373 107.613,6.562 109.088,6.562C110.562,6.562 111.751,5.373 111.751,3.899C111.751,2.424 110.562,1.236 109.088,1.236C107.613,1.236 106.424,2.424 106.424,3.899Z" style="fill:white;fill-rule:nonzero;"></path>      <path d="M123.402,35.571L129.108,35.571L136.812,11.793L130.583,11.793C132.342,14.694 133.674,18.926 132.77,21.684L128.585,34.096L124.496,22.445C121.69,14.551 120.834,12.173 124.353,12.173L124.353,11.793L115.032,11.793L123.402,35.571Z" style="fill:white;fill-rule:nonzero;"></path>      <path d="M140.474,18.784L140.474,35.571L146.181,35.571L146.181,11.793L138.049,11.793L138.049,12.221C139.666,12.221 140.474,14.218 140.474,18.784ZM140.189,3.899C140.189,5.373 141.378,6.562 142.852,6.562C144.326,6.562 145.515,5.373 145.515,3.899C145.515,2.424 144.326,1.236 142.852,1.236C141.378,1.236 140.189,2.424 140.189,3.899Z" style="fill:white;fill-rule:nonzero;"></path>      <path d="M161.636,36.522C168.342,36.522 172.099,33.859 172.099,28.723C172.099,19.021 154.741,20.876 154.741,15.074C154.741,13.505 157.024,11.793 159.592,11.793C164.632,11.793 168.675,15.312 170.672,18.546L170.815,18.546L170.815,13.172C169.483,11.936 165.251,10.842 160.971,10.842C153.124,10.842 150.413,14.789 150.413,18.07C150.413,25.679 167.914,24.871 167.914,31.719C167.914,33.573 166.107,35.571 162.92,35.571C156.405,35.571 152.981,31.291 150.366,27.344L150.223,27.344L150.223,34.192C152.458,35.38 157.404,36.522 161.636,36.522Z" style="fill:white;fill-rule:nonzero;"></path>    </g>  </g></svg>