<svg xmlns="http://www.w3.org/2000/svg" xmlns:xlink="http://www.w3.org/1999/xlink" xmlns:serif="http://www.serif.com/" width="100%" height="100%" viewBox="0 0 174 46" xml:space="preserve" style="fill-rule:evenodd;clip-rule:evenodd;stroke-linejoin:round;stroke-miterlimit:2;">  <g>    <path d="M1.399,38.733L2.826,38.733L2.826,9.724C2.826,8.678 2.636,8.012 2.303,7.774C2.683,7.869 3.111,8.155 3.492,9.011L16.427,38.733L17.711,38.733L29.98,8.297L29.98,38.733L36.162,38.733L36.162,5.444L29.837,5.444L19.423,31.267L8.104,5.444L1.399,5.444L1.399,38.733Z" style="fill-rule:nonzero;"></path>    <path d="M52.236,39.684C57.752,39.684 61.129,35.119 62.556,32.218L62.128,31.885C60.939,34.263 58.085,36.641 54.471,36.641C49.478,36.641 46.101,32.979 45.959,26.559L63.316,26.559C63.316,17.761 57.61,14.004 52.046,14.004C46.339,14.004 39.967,17.951 39.967,26.749C39.967,35.737 46.482,39.684 52.236,39.684ZM45.959,25.608C46.054,18.665 48.384,14.955 52.046,14.955C55.327,14.955 57.467,17.809 57.657,25.608L45.959,25.608Z" style="fill-rule:nonzero;"></path>    <path d="M67.168,21.946L67.168,38.733L72.875,38.733L72.875,26.178C72.875,18.332 76.87,14.955 79.248,14.955C81.055,14.955 81.578,16.715 81.578,20.662L81.578,38.733L87.284,38.733L87.284,20.947C87.284,16.049 85.43,14.004 80.484,14.004C77.393,14.004 74.682,15.383 72.875,17.951L72.875,14.955L64.743,14.955L64.743,15.383C66.36,15.383 67.168,17.381 67.168,21.946Z" style="fill-rule:nonzero;"></path>    <path d="M97.271,39.684C100.172,39.684 101.979,37.069 103.358,35.404L103.168,35.024C102.264,35.975 101.456,36.736 100.41,36.736C98.888,36.688 98.127,35.309 98.127,32.979L98.127,15.906L103.025,15.906L103.025,14.955L98.127,14.955L98.127,7.822L97.604,7.822C97.604,10.2 94.846,14.955 92.42,14.955L90.851,14.955L90.851,15.906L92.42,15.906L92.42,33.074C92.42,36.878 93.895,39.684 97.271,39.684Z" style="fill-rule:nonzero;"></path>    <path d="M106.972,21.946L106.972,38.733L112.679,38.733L112.679,14.955L104.547,14.955L104.547,15.383C106.164,15.383 106.972,17.381 106.972,21.946ZM106.687,7.061C106.687,8.535 107.876,9.724 109.35,9.724C110.824,9.724 112.013,8.535 112.013,7.061C112.013,5.587 110.824,4.398 109.35,4.398C107.876,4.398 106.687,5.587 106.687,7.061Z" style="fill-rule:nonzero;"></path>    <path d="M123.664,38.733L129.371,38.733L137.075,14.955L130.845,14.955C132.605,17.856 133.936,22.089 133.033,24.847L128.848,37.259L124.758,25.608C121.952,17.713 121.096,15.336 124.616,15.336L124.616,14.955L115.295,14.955L123.664,38.733Z" style="fill-rule:nonzero;"></path>    <path d="M140.737,21.946L140.737,38.733L146.444,38.733L146.444,14.955L138.312,14.955L138.312,15.383C139.928,15.383 140.737,17.381 140.737,21.946ZM140.452,7.061C140.452,8.535 141.64,9.724 143.115,9.724C144.589,9.724 145.778,8.535 145.778,7.061C145.778,5.587 144.589,4.398 143.115,4.398C141.64,4.398 140.452,5.587 140.452,7.061Z" style="fill-rule:nonzero;"></path>    <path d="M161.899,39.684C168.604,39.684 172.361,37.021 172.361,31.885C172.361,22.184 155.003,24.038 155.003,18.237C155.003,16.667 157.286,14.955 159.854,14.955C164.895,14.955 168.937,18.474 170.935,21.708L171.077,21.708L171.077,16.334C169.746,15.098 165.513,14.004 161.233,14.004C153.387,14.004 150.676,17.951 150.676,21.233C150.676,28.841 168.176,28.033 168.176,34.881C168.176,36.736 166.369,38.733 163.183,38.733C156.668,38.733 153.244,34.453 150.628,30.506L150.486,30.506L150.486,37.354C152.721,38.543 157.667,39.684 161.899,39.684Z" style="fill-rule:nonzero;"></path>  </g></svg>